<svg xmlns="http://www.w3.org/2000/svg" xmlns:xlink="http://www.w3.org/1999/xlink" width="1134" zoomAndPan="magnify" viewBox="0 0 850.5 187.499995" height="250" preserveAspectRatio="xMidYMid meet" version="1.0"><defs><g/></defs><g fill="#000000" fill-opacity="1"><g transform="translate(12.044809, 137.227062)"><g><path d="M 46.859375 -93.296875 C 41.117188 -93.296875 35.695312 -92.019531 30.59375 -89.46875 C 25.5 -86.925781 21.0625 -83.46875 17.28125 -79.09375 C 13.5 -74.726562 10.492188 -69.628906 8.265625 -63.796875 C 6.035156 -57.960938 4.921875 -51.816406 4.921875 -45.359375 C 4.921875 -38.890625 6.054688 -32.738281 8.328125 -26.90625 C 10.609375 -21.082031 13.660156 -15.984375 17.484375 -11.609375 C 21.304688 -7.234375 25.722656 -3.769531 30.734375 -1.21875 C 35.742188 1.320312 40.984375 2.59375 46.453125 2.59375 C 50.816406 2.59375 54.929688 2.023438 58.796875 0.890625 C 62.671875 -0.242188 66.085938 -1.992188 69.046875 -4.359375 C 72.015625 -6.734375 74.335938 -9.765625 76.015625 -13.453125 C 77.703125 -17.140625 78.546875 -21.535156 78.546875 -26.640625 L 78.546875 -31.28125 L 90.4375 -31.28125 L 90.4375 -33.46875 L 49.859375 -33.46875 L 49.859375 -31.28125 L 64.484375 -31.28125 L 64.484375 -18.4375 C 64.484375 -16.25 64.253906 -14.0625 63.796875 -11.875 C 63.335938 -9.695312 62.46875 -7.71875 61.1875 -5.9375 C 59.914062 -4.164062 58.117188 -2.707031 55.796875 -1.5625 C 53.484375 -0.425781 50.457031 0.140625 46.71875 0.140625 C 38.789062 0.140625 32.640625 -3 28.265625 -9.28125 C 23.898438 -15.570312 21.71875 -24.910156 21.71875 -37.296875 L 21.71875 -54.09375 C 21.71875 -60.5625 22.332031 -66.117188 23.5625 -70.765625 C 24.789062 -75.410156 26.519531 -79.210938 28.75 -82.171875 C 30.988281 -85.128906 33.628906 -87.3125 36.671875 -88.71875 C 39.722656 -90.132812 43.117188 -90.84375 46.859375 -90.84375 C 53.503906 -90.84375 59.191406 -88.90625 63.921875 -85.03125 C 68.660156 -81.164062 72.488281 -74.585938 75.40625 -65.296875 C 75.675781 -64.472656 76.085938 -64.0625 76.640625 -64.0625 C 77.179688 -64.0625 77.453125 -64.472656 77.453125 -65.296875 L 77.453125 -91.125 C 77.453125 -92.125 77.085938 -92.625 76.359375 -92.625 C 75.910156 -92.625 75.570312 -92.53125 75.34375 -92.34375 C 75.113281 -92.164062 74.816406 -91.894531 74.453125 -91.53125 L 68.578125 -85.65625 C 65.929688 -88.019531 62.71875 -89.882812 58.9375 -91.25 C 55.164062 -92.613281 51.140625 -93.296875 46.859375 -93.296875 Z M 46.859375 -93.296875 "/></g></g></g><g fill="#000000" fill-opacity="1"><g transform="translate(103.413324, 137.227062)"><g><path d="M 26.09375 -2.1875 L 26.09375 -91.796875 L 4.78125 -91.796875 L 4.78125 -89.609375 L 14.34375 -89.609375 L 14.34375 -2.1875 L 4.78125 -2.1875 L 4.78125 0 L 35.65625 0 L 35.65625 -2.1875 Z M 26.09375 -2.1875 "/></g></g></g><g fill="#000000" fill-opacity="1"><g transform="translate(142.337134, 137.227062)"><g><path d="M 31.015625 1.90625 C 35.109375 1.90625 38.816406 0.972656 42.140625 -0.890625 C 45.460938 -2.753906 48.285156 -5.097656 50.609375 -7.921875 C 52.929688 -10.742188 54.726562 -13.835938 56 -17.203125 C 57.28125 -20.578125 57.921875 -23.769531 57.921875 -26.78125 C 57.921875 -29.78125 57.28125 -32.960938 56 -36.328125 C 54.726562 -39.703125 52.929688 -42.800781 50.609375 -45.625 C 48.285156 -48.445312 45.460938 -50.789062 42.140625 -52.65625 C 38.816406 -54.53125 35.109375 -55.46875 31.015625 -55.46875 C 26.910156 -55.46875 23.195312 -54.53125 19.875 -52.65625 C 16.550781 -50.789062 13.703125 -48.445312 11.328125 -45.625 C 8.960938 -42.800781 7.144531 -39.703125 5.875 -36.328125 C 4.601562 -32.960938 3.96875 -29.78125 3.96875 -26.78125 C 3.96875 -23.769531 4.601562 -20.578125 5.875 -17.203125 C 7.144531 -13.835938 8.960938 -10.742188 11.328125 -7.921875 C 13.703125 -5.097656 16.550781 -2.753906 19.875 -0.890625 C 23.195312 0.972656 26.910156 1.90625 31.015625 1.90625 Z M 18.171875 -29.78125 C 18.171875 -33.601562 18.328125 -36.972656 18.640625 -39.890625 C 18.960938 -42.804688 19.578125 -45.265625 20.484375 -47.265625 C 21.398438 -49.265625 22.695312 -50.765625 24.375 -51.765625 C 26.0625 -52.773438 28.273438 -53.28125 31.015625 -53.28125 C 33.742188 -53.28125 35.945312 -52.773438 37.625 -51.765625 C 39.3125 -50.765625 40.585938 -49.265625 41.453125 -47.265625 C 42.328125 -45.265625 42.921875 -42.804688 43.234375 -39.890625 C 43.554688 -36.972656 43.71875 -33.601562 43.71875 -29.78125 L 43.71875 -23.90625 C 43.71875 -19.8125 43.554688 -16.28125 43.234375 -13.3125 C 42.921875 -10.351562 42.328125 -7.914062 41.453125 -6 C 40.585938 -4.09375 39.3125 -2.660156 37.625 -1.703125 C 35.945312 -0.742188 33.742188 -0.265625 31.015625 -0.265625 C 28.273438 -0.265625 26.0625 -0.742188 24.375 -1.703125 C 22.695312 -2.660156 21.398438 -4.09375 20.484375 -6 C 19.578125 -7.914062 18.960938 -10.351562 18.640625 -13.3125 C 18.328125 -16.28125 18.171875 -19.8125 18.171875 -23.90625 Z M 18.171875 -29.78125 "/></g></g></g><g fill="#000000" fill-opacity="1"><g transform="translate(203.386034, 137.227062)"><g><path d="M 3.6875 -53.546875 L 3.6875 -51.359375 L 12.5625 -51.359375 L 31.6875 1.5 L 32.921875 1.5 L 44.8125 -34.703125 L 59.15625 1.5 L 60.25 1.5 L 76.78125 -51.359375 L 86.203125 -51.359375 L 86.203125 -53.546875 L 63.25 -53.546875 L 63.25 -51.359375 L 74.59375 -51.359375 L 63.9375 -17.078125 L 49.59375 -53.546875 L 48.640625 -53.546875 L 36.890625 -17.21875 L 24.453125 -51.359375 L 33.46875 -51.359375 L 33.46875 -53.546875 Z M 3.6875 -53.546875 "/></g></g></g><g fill="#000000" fill-opacity="1"><g transform="translate(292.023052, 137.227062)"><g><path d="M 39.75 -91.796875 L 3 -91.796875 L 3 -89.609375 L 14.75 -89.609375 L 14.75 -22.8125 C 14.75 -17.988281 15.679688 -13.957031 17.546875 -10.71875 C 19.421875 -7.488281 21.835938 -4.867188 24.796875 -2.859375 C 27.753906 -0.859375 31.050781 0.546875 34.6875 1.359375 C 38.332031 2.179688 41.929688 2.59375 45.484375 2.59375 C 54.140625 2.59375 60.878906 0.476562 65.703125 -3.75 C 70.535156 -7.988281 72.953125 -14.34375 72.953125 -22.8125 L 72.953125 -89.609375 L 84.703125 -89.609375 L 84.703125 -91.796875 L 59.015625 -91.796875 L 59.015625 -89.609375 L 70.765625 -89.609375 L 70.765625 -22.8125 C 70.765625 -19.164062 70.191406 -15.910156 69.046875 -13.046875 C 67.910156 -10.179688 66.34375 -7.769531 64.34375 -5.8125 C 62.34375 -3.851562 60 -2.367188 57.3125 -1.359375 C 54.625 -0.359375 51.734375 0.140625 48.640625 0.140625 C 42.253906 0.140625 37.21875 -1.835938 33.53125 -5.796875 C 29.84375 -9.765625 28 -15.4375 28 -22.8125 L 28 -89.609375 L 39.75 -89.609375 Z M 39.75 -91.796875 "/></g></g></g><g fill="#000000" fill-opacity="1"><g transform="translate(379.157749, 137.227062)"><g><path d="M 50.6875 -23.90625 C 50.6875 -18.800781 50.410156 -14.722656 49.859375 -11.671875 C 49.316406 -8.628906 48.519531 -6.285156 47.46875 -4.640625 C 46.425781 -3.003906 45.175781 -1.910156 43.71875 -1.359375 C 42.257812 -0.816406 40.617188 -0.546875 38.796875 -0.546875 C 36.878906 -0.546875 35.054688 -0.929688 33.328125 -1.703125 C 31.597656 -2.484375 30.050781 -3.488281 28.6875 -4.71875 C 27.320312 -5.945312 26.226562 -7.285156 25.40625 -8.734375 C 24.59375 -10.191406 24.1875 -11.609375 24.1875 -12.984375 L 24.1875 -39.484375 C 24.1875 -41.117188 24.640625 -42.753906 25.546875 -44.390625 C 26.453125 -46.035156 27.632812 -47.515625 29.09375 -48.828125 C 30.550781 -50.148438 32.164062 -51.222656 33.9375 -52.046875 C 35.71875 -52.867188 37.472656 -53.28125 39.203125 -53.28125 C 40.660156 -53.28125 42.070312 -53.03125 43.4375 -52.53125 C 44.800781 -52.03125 46.03125 -50.984375 47.125 -49.390625 C 48.21875 -47.796875 49.082031 -45.472656 49.71875 -42.421875 C 50.363281 -39.367188 50.6875 -35.289062 50.6875 -30.1875 Z M 24.1875 -46.578125 L 24.1875 -53.546875 L 3.546875 -53.546875 L 3.546875 -51.359375 L 12.4375 -51.359375 L 12.4375 34.421875 L 3.546875 34.421875 L 3.546875 36.609375 L 33.0625 36.609375 L 33.0625 34.421875 L 24.1875 34.421875 L 24.1875 -5.875 C 25.726562 -3.59375 27.726562 -1.722656 30.1875 -0.265625 C 32.644531 1.179688 35.601562 1.90625 39.0625 1.90625 C 42.34375 1.90625 45.53125 1.132812 48.625 -0.40625 C 51.726562 -1.957031 54.484375 -4.03125 56.890625 -6.625 C 59.304688 -9.21875 61.242188 -12.265625 62.703125 -15.765625 C 64.160156 -19.273438 64.890625 -22.988281 64.890625 -26.90625 C 64.890625 -30.820312 64.132812 -34.507812 62.625 -37.96875 C 61.125 -41.4375 59.144531 -44.46875 56.6875 -47.0625 C 54.226562 -49.65625 51.472656 -51.703125 48.421875 -53.203125 C 45.378906 -54.710938 42.351562 -55.46875 39.34375 -55.46875 C 35.519531 -55.46875 32.398438 -54.507812 29.984375 -52.59375 C 27.566406 -50.675781 25.632812 -48.671875 24.1875 -46.578125 Z M 24.1875 -46.578125 "/></g></g></g><g fill="#000000" fill-opacity="1"><g transform="translate(447.44511, 137.227062)"><g><path d="M 71.71875 -70.484375 C 71.71875 -73.859375 70.941406 -76.890625 69.390625 -79.578125 C 67.847656 -82.265625 65.773438 -84.492188 63.171875 -86.265625 C 60.578125 -88.046875 57.59375 -89.410156 54.21875 -90.359375 C 50.851562 -91.316406 47.351562 -91.796875 43.71875 -91.796875 L 3.96875 -91.796875 L 3.96875 -89.609375 L 15.703125 -89.609375 L 15.703125 -2.1875 L 3.96875 -2.1875 L 3.96875 0 L 44.8125 0 C 54.28125 0 61.628906 -2.179688 66.859375 -6.546875 C 72.097656 -10.921875 74.71875 -16.976562 74.71875 -24.71875 C 74.71875 -28.726562 73.921875 -32.234375 72.328125 -35.234375 C 70.734375 -38.242188 68.753906 -40.796875 66.390625 -42.890625 C 64.023438 -44.984375 61.40625 -46.597656 58.53125 -47.734375 C 55.664062 -48.878906 53.003906 -49.585938 50.546875 -49.859375 C 53.546875 -50.410156 56.34375 -51.207031 58.9375 -52.25 C 61.539062 -53.300781 63.773438 -54.664062 65.640625 -56.34375 C 67.503906 -58.03125 68.984375 -60.035156 70.078125 -62.359375 C 71.171875 -64.679688 71.71875 -67.390625 71.71875 -70.484375 Z M 28.96875 -50.6875 L 28.96875 -89.609375 L 43.71875 -89.609375 C 45.988281 -89.609375 48.035156 -89.3125 49.859375 -88.71875 C 51.679688 -88.132812 53.226562 -87.132812 54.5 -85.71875 C 55.78125 -84.3125 56.785156 -82.445312 57.515625 -80.125 C 58.242188 -77.800781 58.609375 -74.953125 58.609375 -71.578125 L 58.609375 -69.390625 C 58.609375 -65.753906 58.242188 -62.726562 57.515625 -60.3125 C 56.785156 -57.894531 55.78125 -55.976562 54.5 -54.5625 C 53.226562 -53.15625 51.660156 -52.15625 49.796875 -51.5625 C 47.929688 -50.976562 45.90625 -50.6875 43.71875 -50.6875 Z M 28.96875 -2.1875 L 28.96875 -48.5 L 43.71875 -48.5 C 50 -48.5 54.484375 -46.582031 57.171875 -42.75 C 59.859375 -38.925781 61.203125 -33.460938 61.203125 -26.359375 L 61.203125 -23.09375 C 61.203125 -16.4375 59.925781 -11.285156 57.375 -7.640625 C 54.820312 -4.003906 50.269531 -2.1875 43.71875 -2.1875 Z M 28.96875 -2.1875 "/></g></g></g><g fill="#000000" fill-opacity="1"><g transform="translate(529.116811, 137.227062)"><g><path d="M 53.6875 -33.203125 C 53.59375 -34.648438 53.113281 -36.648438 52.25 -39.203125 C 51.382812 -41.753906 50.039062 -44.210938 48.21875 -46.578125 C 46.394531 -48.953125 43.976562 -51.023438 40.96875 -52.796875 C 37.96875 -54.578125 34.285156 -55.46875 29.921875 -55.46875 C 26.273438 -55.46875 22.878906 -54.597656 19.734375 -52.859375 C 16.597656 -51.128906 13.890625 -48.898438 11.609375 -46.171875 C 9.335938 -43.441406 7.5625 -40.34375 6.28125 -36.875 C 5.007812 -33.414062 4.375 -29.910156 4.375 -26.359375 C 4.375 -22.804688 5.007812 -19.34375 6.28125 -15.96875 C 7.5625 -12.601562 9.335938 -9.597656 11.609375 -6.953125 C 13.890625 -4.316406 16.644531 -2.179688 19.875 -0.546875 C 23.101562 1.085938 26.632812 1.90625 30.46875 1.90625 C 33.5625 1.90625 36.382812 1.472656 38.9375 0.609375 C 41.488281 -0.253906 43.742188 -1.4375 45.703125 -2.9375 C 47.660156 -4.4375 49.320312 -6.1875 50.6875 -8.1875 C 52.050781 -10.195312 53.140625 -12.296875 53.953125 -14.484375 C 54.234375 -15.117188 54.375 -15.753906 54.375 -16.390625 C 54.375 -17.023438 54.097656 -17.34375 53.546875 -17.34375 C 53.097656 -17.34375 52.691406 -16.890625 52.328125 -15.984375 C 51.503906 -14.066406 50.476562 -12.148438 49.25 -10.234375 C 48.019531 -8.328125 46.515625 -6.644531 44.734375 -5.1875 C 42.960938 -3.726562 40.9375 -2.539062 38.65625 -1.625 C 36.382812 -0.71875 33.742188 -0.265625 30.734375 -0.265625 C 27.085938 -0.265625 24.148438 -1.628906 21.921875 -4.359375 C 19.691406 -7.097656 18.578125 -11.472656 18.578125 -17.484375 L 18.578125 -31.421875 L 51.5 -31.421875 C 52.957031 -31.421875 53.6875 -32.015625 53.6875 -33.203125 Z M 18.578125 -33.609375 L 18.578125 -39.0625 C 18.578125 -42.070312 18.914062 -44.507812 19.59375 -46.375 C 20.28125 -48.238281 21.171875 -49.671875 22.265625 -50.671875 C 23.359375 -51.679688 24.585938 -52.367188 25.953125 -52.734375 C 27.316406 -53.097656 28.679688 -53.28125 30.046875 -53.28125 C 32.234375 -53.28125 34.03125 -52.890625 35.4375 -52.109375 C 36.851562 -51.335938 37.972656 -50.3125 38.796875 -49.03125 C 39.617188 -47.757812 40.164062 -46.347656 40.4375 -44.796875 C 40.707031 -43.253906 40.84375 -41.664062 40.84375 -40.03125 C 40.84375 -35.75 40.160156 -33.609375 38.796875 -33.609375 Z M 18.578125 -33.609375 "/></g></g></g><g fill="#000000" fill-opacity="1"><g transform="translate(588.390278, 137.227062)"><g><path d="M 15.703125 -52.1875 C 12.796875 -50.269531 11.34375 -47.992188 11.34375 -45.359375 C 11.34375 -44.078125 11.773438 -42.910156 12.640625 -41.859375 C 13.503906 -40.816406 14.707031 -40.296875 16.25 -40.296875 C 17.800781 -40.296875 19.054688 -40.75 20.015625 -41.65625 C 20.972656 -42.570312 21.453125 -43.710938 21.453125 -45.078125 C 21.453125 -45.710938 21.335938 -46.375 21.109375 -47.0625 C 20.878906 -47.75 20.445312 -48.410156 19.8125 -49.046875 C 19.351562 -49.492188 18.988281 -49.804688 18.71875 -49.984375 C 18.445312 -50.171875 18.3125 -50.40625 18.3125 -50.6875 C 18.3125 -51.050781 18.582031 -51.414062 19.125 -51.78125 C 19.664062 -52.144531 20.347656 -52.460938 21.171875 -52.734375 C 21.992188 -53.003906 22.925781 -53.226562 23.96875 -53.40625 C 25.019531 -53.59375 26.046875 -53.6875 27.046875 -53.6875 C 29.867188 -53.6875 32.097656 -53.140625 33.734375 -52.046875 C 35.378906 -50.953125 36.203125 -48.859375 36.203125 -45.765625 L 36.203125 -29.640625 C 32.015625 -29.640625 28.097656 -29.207031 24.453125 -28.34375 C 20.804688 -27.476562 17.617188 -26.222656 14.890625 -24.578125 C 12.160156 -22.941406 10.019531 -20.914062 8.46875 -18.5 C 6.914062 -16.09375 6.140625 -13.382812 6.140625 -10.375 C 6.140625 -8.195312 6.523438 -6.3125 7.296875 -4.71875 C 8.078125 -3.125 9.148438 -1.847656 10.515625 -0.890625 C 11.878906 0.0664062 13.445312 0.769531 15.21875 1.21875 C 17 1.675781 18.894531 1.90625 20.90625 1.90625 C 23 1.90625 24.882812 1.65625 26.5625 1.15625 C 28.25 0.65625 29.753906 0.0195312 31.078125 -0.75 C 32.398438 -1.519531 33.515625 -2.335938 34.421875 -3.203125 C 35.335938 -4.078125 36.066406 -4.921875 36.609375 -5.734375 C 36.878906 -3.828125 37.742188 -2.078125 39.203125 -0.484375 C 40.660156 1.109375 43.210938 1.90625 46.859375 1.90625 C 49.222656 1.90625 51.203125 1.539062 52.796875 0.8125 C 54.390625 0.09375 55.6875 -0.765625 56.6875 -1.765625 C 57.695312 -2.773438 58.40625 -3.800781 58.8125 -4.84375 C 59.21875 -5.894531 59.421875 -6.691406 59.421875 -7.234375 C 59.421875 -7.691406 59.285156 -7.921875 59.015625 -7.921875 C 58.742188 -7.921875 58.425781 -7.554688 58.0625 -6.828125 C 57.332031 -5.285156 56.421875 -4.035156 55.328125 -3.078125 C 54.234375 -2.117188 53.050781 -1.640625 51.78125 -1.640625 C 49.957031 -1.640625 48.863281 -2.390625 48.5 -3.890625 C 48.132812 -5.390625 47.953125 -7.460938 47.953125 -10.109375 L 47.953125 -43.171875 C 47.953125 -47.085938 46.492188 -50.113281 43.578125 -52.25 C 40.660156 -54.394531 36.195312 -55.46875 30.1875 -55.46875 C 27.363281 -55.46875 24.65625 -55.171875 22.0625 -54.578125 C 19.46875 -53.984375 17.347656 -53.1875 15.703125 -52.1875 Z M 36.203125 -28.28125 L 36.203125 -9.296875 C 36.203125 -8.472656 35.8125 -7.601562 35.03125 -6.6875 C 34.257812 -5.78125 33.304688 -4.9375 32.171875 -4.15625 C 31.035156 -3.382812 29.851562 -2.769531 28.625 -2.3125 C 27.394531 -1.863281 26.367188 -1.640625 25.546875 -1.640625 C 22.722656 -1.640625 20.582031 -2.734375 19.125 -4.921875 C 17.664062 -7.109375 16.9375 -10.066406 16.9375 -13.796875 C 16.9375 -16.804688 17.484375 -19.21875 18.578125 -21.03125 C 19.671875 -22.851562 21.101562 -24.265625 22.875 -25.265625 C 24.65625 -26.273438 26.707031 -26.984375 29.03125 -27.390625 C 31.351562 -27.796875 33.742188 -28.09375 36.203125 -28.28125 Z M 36.203125 -28.28125 "/></g></g></g><g fill="#000000" fill-opacity="1"><g transform="translate(648.892918, 137.227062)"><g><path d="M 48.21875 -10.25 L 48.21875 0 L 69.53125 0 L 69.53125 -2.1875 L 59.96875 -2.1875 L 59.96875 -53.546875 L 38.65625 -53.546875 L 38.65625 -51.359375 L 48.21875 -51.359375 L 48.21875 -17.34375 C 48.21875 -15.882812 47.785156 -14.289062 46.921875 -12.5625 C 46.054688 -10.832031 44.894531 -9.21875 43.4375 -7.71875 C 41.976562 -6.21875 40.289062 -4.960938 38.375 -3.953125 C 36.46875 -2.953125 34.515625 -2.453125 32.515625 -2.453125 C 29.328125 -2.453125 27.273438 -3.226562 26.359375 -4.78125 C 25.453125 -6.332031 25 -8.835938 25 -12.296875 L 25 -53.546875 L 3.6875 -53.546875 L 3.6875 -51.359375 L 13.25 -51.359375 L 13.25 -13.25 C 13.25 -10.332031 13.613281 -7.914062 14.34375 -6 C 15.070312 -4.09375 16.070312 -2.59375 17.34375 -1.5 C 18.625 -0.40625 20.101562 0.363281 21.78125 0.8125 C 23.46875 1.269531 25.222656 1.5 27.046875 1.5 C 31.867188 1.5 36.078125 0.476562 39.671875 -1.5625 C 43.273438 -3.613281 46.125 -6.507812 48.21875 -10.25 Z M 48.21875 -10.25 "/></g></g></g><g fill="#000000" fill-opacity="1"><g transform="translate(722.643309, 137.227062)"><g><path d="M 24.1875 -53.546875 L 24.1875 -75 L 12.4375 -69.125 L 12.4375 -53.546875 L 3.140625 -53.546875 L 3.140625 -51.359375 L 12.4375 -51.359375 L 12.4375 -14.484375 C 12.4375 -9.378906 13.800781 -5.367188 16.53125 -2.453125 C 19.257812 0.453125 23.222656 1.90625 28.421875 1.90625 C 33.785156 1.90625 37.582031 0.835938 39.8125 -1.296875 C 42.050781 -3.441406 43.488281 -6.378906 44.125 -10.109375 C 44.21875 -10.566406 44.265625 -10.835938 44.265625 -10.921875 C 44.265625 -11.015625 44.265625 -11.15625 44.265625 -11.34375 C 44.265625 -12.070312 43.988281 -12.4375 43.4375 -12.4375 C 42.707031 -12.4375 42.300781 -11.976562 42.21875 -11.0625 C 41.757812 -7.96875 40.707031 -5.53125 39.0625 -3.75 C 37.425781 -1.976562 35.425781 -1.09375 33.0625 -1.09375 C 29.875 -1.09375 27.597656 -2.1875 26.234375 -4.375 C 24.867188 -6.5625 24.1875 -9.835938 24.1875 -14.203125 L 24.1875 -51.359375 L 37.4375 -51.359375 L 37.4375 -53.546875 Z M 24.1875 -53.546875 "/></g></g></g><g fill="#000000" fill-opacity="1"><g transform="translate(768.805616, 137.227062)"><g><path d="M 4.09375 -53.546875 L 4.09375 -51.359375 L 13.109375 -51.359375 L 35.921875 0.546875 L 28 21.453125 C 26.820312 24.453125 25.523438 26.679688 24.109375 28.140625 C 22.703125 29.597656 21.359375 30.328125 20.078125 30.328125 C 19.347656 30.328125 18.867188 30.144531 18.640625 29.78125 C 18.421875 29.414062 18.171875 28.960938 17.890625 28.421875 C 17.347656 27.234375 16.664062 26.34375 15.84375 25.75 C 15.03125 25.15625 13.9375 24.859375 12.5625 24.859375 C 11.019531 24.859375 9.835938 25.359375 9.015625 26.359375 C 8.191406 27.367188 7.78125 28.554688 7.78125 29.921875 C 7.78125 31.648438 8.347656 33.035156 9.484375 34.078125 C 10.628906 35.128906 12.382812 35.65625 14.75 35.65625 C 17.9375 35.65625 20.894531 34.445312 23.625 32.03125 C 26.363281 29.625 28.503906 26.320312 30.046875 22.125 L 58.203125 -51.359375 L 67.21875 -51.359375 L 67.21875 -53.546875 L 45.625 -53.546875 L 45.625 -51.359375 L 55.734375 -51.359375 L 41.53125 -14.203125 L 25.6875 -51.359375 L 36.203125 -51.359375 L 36.203125 -53.546875 Z M 4.09375 -53.546875 "/></g></g></g></svg>